<?xml version="1.0" encoding="UTF-8"?>
<svg id="Layer_2" data-name="Layer 2" xmlns="http://www.w3.org/2000/svg" viewBox="0 0 461.89 160.61">
  <defs>
    <style>
      .cls-1 {
        fill: #fff;
        stroke-width: 0px;
      }
    </style>
  </defs>
  <g id="Layer_1-2" data-name="Layer 1">
    <g>
      <g>
        <g>
          <path class="cls-1" d="m210.14,49.54h-12.31v-9.28h11.92c.38,0,.69-.13.95-.38.25-.25.38-.57.38-.94s-.13-.69-.38-.94c-.26-.26-.57-.38-.95-.38h-11.92v-9.28h12.31c.38,0,.69-.13.94-.38.25-.25.38-.57.38-.94s-.13-.7-.38-.95c-.25-.25-.57-.38-.94-.38h-13.74c-.43,0-.78.13-1.06.42-.28.28-.42.63-.42,1.06v23.55c0,.43.13.79.42,1.06.28.28.63.42,1.06.42h13.74c.38,0,.69-.13.94-.38.25-.26.38-.57.38-.95s-.13-.69-.38-.94-.57-.38-.94-.38Z"/>
          <path class="cls-1" d="m239.78,32.03c-1.21-2.08-2.86-3.72-4.96-4.92-2.1-1.2-4.42-1.8-6.96-1.8s-4.88.6-6.97,1.8c-2.1,1.2-3.75,2.84-4.96,4.92-1.21,2.09-1.81,4.39-1.81,6.91s.6,4.83,1.81,6.91c1.21,2.09,2.86,3.72,4.96,4.93,2.1,1.2,4.42,1.8,6.97,1.8s4.87-.59,6.96-1.8,3.75-2.84,4.96-4.93c1.21-2.08,1.82-4.38,1.82-6.91s-.61-4.83-1.82-6.91Zm-2.6,12.44c-.94,1.66-2.24,2.98-3.87,3.94-1.64.95-3.47,1.44-5.45,1.44s-3.82-.48-5.45-1.44c-1.64-.96-2.94-2.27-3.88-3.92s-1.42-3.5-1.42-5.54.48-3.87,1.42-5.53c.94-1.67,2.24-2.98,3.88-3.94,1.64-.96,3.46-1.44,5.45-1.44s3.81.48,5.45,1.44c1.64.96,2.93,2.27,3.87,3.92.95,1.65,1.42,3.5,1.42,5.54s-.47,3.86-1.42,5.53Z"/>
          <path class="cls-1" d="m262.95,41.09c-.83-1.04-1.83-1.8-2.99-2.3-1.16-.51-2.69-1-4.58-1.48-1.51-.4-2.7-.78-3.56-1.12-.86-.34-1.58-.82-2.15-1.44-.58-.62-.88-1.44-.88-2.45,0-.83.25-1.58.74-2.25.49-.67,1.17-1.19,2.05-1.58.87-.38,1.86-.57,2.97-.57,1.59,0,2.94.42,4.05,1.25,1.11.83,1.89,1.9,2.35,3.21.15.28.33.49.51.63.19.14.45.21.78.21.45,0,.82-.15,1.1-.45.28-.3.38-.71.33-1.21-.2-1.14-.71-2.18-1.53-3.12-.83-.95-1.88-1.7-3.16-2.27-1.29-.57-2.73-.86-4.32-.86-1.69,0-3.21.32-4.56.95-1.35.63-2.4,1.49-3.16,2.56-.76,1.07-1.14,2.28-1.14,3.62,0,1.62.4,2.91,1.19,3.9.79.99,1.76,1.72,2.9,2.2,1.14.48,2.62.97,4.47,1.48,1.54.4,2.76.78,3.67,1.15.91.37,1.66.89,2.27,1.55.6.67.91,1.54.91,2.63,0,.89-.26,1.68-.78,2.39-.52.71-1.25,1.25-2.2,1.64-.95.39-2.03.58-3.24.58-1.9,0-3.42-.39-4.56-1.19-1.15-.8-1.95-1.89-2.4-3.28-.16-.28-.33-.48-.52-.62-.18-.14-.44-.21-.78-.21-.45,0-.82.15-1.09.45-.28.3-.39.71-.34,1.21.2,1.19.72,2.25,1.55,3.2.83.95,1.93,1.7,3.29,2.24,1.37.54,2.92.81,4.66.81s3.33-.31,4.78-.93c1.44-.62,2.56-1.48,3.38-2.59.83-1.11,1.24-2.36,1.24-3.75,0-1.77-.42-3.17-1.25-4.21Z"/>
          <path class="cls-1" d="m291.54,43.86c-.48,0-.89.23-1.22.68-.88,1.59-2.12,2.87-3.71,3.84-1.59.98-3.36,1.46-5.3,1.46s-3.81-.48-5.45-1.44c-1.64-.96-2.93-2.27-3.88-3.92-.94-1.65-1.41-3.5-1.41-5.54s.47-3.89,1.41-5.54c.95-1.65,2.25-2.96,3.88-3.92,1.64-.96,3.46-1.44,5.45-1.44s3.72.48,5.3,1.46c1.59.97,2.83,2.25,3.71,3.84.33.45.73.68,1.22.68.4,0,.74-.13,1.02-.39.28-.27.42-.61.42-1.04,0-.28-.1-.57-.3-.87-1.06-1.9-2.59-3.43-4.58-4.62-2-1.19-4.26-1.79-6.78-1.79s-4.87.6-6.96,1.8c-2.1,1.2-3.75,2.84-4.96,4.92-1.21,2.09-1.82,4.39-1.82,6.91s.61,4.83,1.82,6.91c1.21,2.09,2.86,3.72,4.96,4.93,2.1,1.2,4.42,1.8,6.96,1.8s4.78-.59,6.78-1.78c2-1.19,3.52-2.72,4.58-4.62.2-.3.3-.59.3-.87,0-.43-.14-.78-.42-1.04-.28-.27-.62-.4-1.02-.4Z"/>
        </g>
        <g>
          <path class="cls-1" d="m218.16,72.85c-1.21-2.08-2.88-3.72-5-4.92-2.12-1.2-4.47-1.8-7.04-1.8s-4.88.6-7.01,1.8c-2.12,1.2-3.78,2.84-4.99,4.92-1.22,2.09-1.82,4.39-1.82,6.91s.6,4.83,1.82,6.91c1.21,2.09,2.87,3.72,4.99,4.93,2.12,1.2,4.46,1.8,7.01,1.8s4.92-.59,7.04-1.8c2.12-1.2,3.79-2.84,5-4.93,1.21-2.08,1.82-4.38,1.82-6.91s-.61-4.83-1.82-6.91Zm-3.88,11.8c-.82,1.46-1.95,2.62-3.39,3.48-1.44.86-3.02,1.29-4.77,1.29s-3.32-.43-4.75-1.29-2.56-2.02-3.39-3.48c-.83-1.46-1.25-3.09-1.25-4.88s.42-3.42,1.25-4.88c.83-1.46,1.96-2.62,3.39-3.48,1.43-.86,3.01-1.29,4.75-1.29s3.33.43,4.77,1.29c1.44.86,2.57,2.02,3.39,3.48.82,1.46,1.24,3.09,1.24,4.88s-.42,3.42-1.24,4.88Z"/>
          <path class="cls-1" d="m242.37,70.64c-.78-1.29-1.86-2.3-3.26-3.03-1.4-.73-3-1.09-4.79-1.09h-8.48c-.63,0-1.14.21-1.55.63-.4.42-.6.93-.6,1.53v22.5c0,.6.2,1.12.6,1.54.41.41.93.62,1.55.62s1.12-.21,1.54-.62c.42-.42.63-.94.63-1.54v-7.84h6.32c1.82,0,3.42-.36,4.81-1.08,1.39-.72,2.46-1.72,3.24-2.99.77-1.28,1.15-2.71,1.15-4.3s-.38-3.03-1.15-4.32Zm-3.9,6.59c-.39.68-.95,1.23-1.67,1.63s-1.54.61-2.48.61h-6.32v-9.09h6.32c.94,0,1.76.2,2.48.59.72.39,1.28.93,1.67,1.63.38.69.58,1.47.58,2.32s-.2,1.63-.58,2.31Z"/>
          <path class="cls-1" d="m261.66,89.16h-11.06v-7.46h10.68c.53,0,.99-.19,1.36-.57s.57-.83.57-1.36c0-.56-.19-1.02-.57-1.39-.38-.36-.83-.54-1.36-.54h-10.68v-7.46h11.06c.53,0,.99-.18,1.36-.57.38-.38.57-.83.57-1.36s-.18-1.02-.57-1.38c-.38-.37-.83-.55-1.36-.55h-13.22c-.63,0-1.14.21-1.54.63-.41.42-.61.93-.61,1.53v22.19c0,.6.2,1.11.61,1.53.4.42.92.63,1.54.63h13.22c.53,0,.99-.19,1.36-.57.38-.38.57-.83.57-1.36,0-.56-.18-1.02-.57-1.39-.38-.37-.83-.54-1.36-.54Z"/>
          <path class="cls-1" d="m289.7,66.83c-.42-.41-.94-.62-1.57-.62s-1.12.21-1.54.62c-.42.42-.63.94-.63,1.54v17.13l-14.31-18.26c-.53-.68-1.2-1.02-2-1.02-.68,0-1.26.23-1.73.69-.47.47-.69,1.06-.69,1.76v22.5c0,.6.2,1.12.6,1.54.4.41.92.62,1.55.62s1.12-.21,1.54-.62c.42-.42.62-.94.62-1.54v-17.13l14.31,18.27c.53.68,1.2,1.02,2.01,1.02.71,0,1.29-.23,1.76-.72.47-.48.7-1.06.7-1.74v-22.49c0-.6-.21-1.12-.63-1.54Z"/>
          <path class="cls-1" d="m324.3,81.39c-.84-1.09-1.86-1.88-3.05-2.39-1.19-.5-2.71-.99-4.58-1.48-1.34-.38-2.37-.7-3.11-.99-.73-.28-1.34-.66-1.85-1.15-.5-.49-.75-1.14-.75-1.95,0-.68.18-1.29.57-1.82.38-.53.92-.94,1.63-1.25.7-.3,1.53-.45,2.45-.45,1.27,0,2.35.33,3.28.99.92.65,1.64,1.53,2.17,2.61.28.35.55.61.82.78.27.16.61.24,1.04.24.63,0,1.15-.2,1.57-.6.42-.41.6-.94.54-1.59-.1-1.09-.57-2.1-1.39-3.06-.83-.96-1.93-1.72-3.3-2.29-1.36-.57-2.86-.86-4.5-.86-1.75,0-3.33.33-4.75.99-1.43.66-2.56,1.56-3.37,2.71-.82,1.14-1.23,2.43-1.23,3.84,0,1.71.42,3.08,1.24,4.11.83,1.02,1.83,1.78,2.97,2.27,1.15.49,2.63.98,4.45,1.45,1.36.36,2.44.69,3.24,1.01.79.32,1.45.73,1.96,1.27.52.53.78,1.22.78,2.08,0,.71-.22,1.35-.63,1.93-.42.58-1,1.04-1.75,1.34-.74.32-1.64.48-2.67.48-1.54,0-2.79-.33-3.77-.97-.97-.64-1.72-1.52-2.25-2.63-.25-.35-.52-.61-.79-.78-.28-.16-.62-.24-1.02-.24-.66,0-1.19.2-1.59.6-.4.41-.59.94-.57,1.59.13,1.14.61,2.17,1.46,3.12.84.94,1.98,1.7,3.41,2.25,1.43.55,3.03.83,4.83.83s3.47-.33,4.96-.99c1.49-.65,2.66-1.56,3.52-2.72.86-1.16,1.29-2.47,1.29-3.94,0-1.81-.43-3.26-1.27-4.35Z"/>
          <path class="cls-1" d="m351.85,84.27c-.66,0-1.24.28-1.74.87-.81,1.29-1.89,2.32-3.22,3.11-1.34.78-2.81,1.17-4.43,1.17-1.75,0-3.33-.43-4.76-1.29-1.42-.86-2.56-2.02-3.38-3.48-.83-1.46-1.25-3.09-1.25-4.88s.42-3.42,1.25-4.88c.83-1.46,1.96-2.62,3.38-3.48,1.43-.86,3.01-1.29,4.76-1.29,1.61,0,3.09.39,4.43,1.17,1.34.78,2.41,1.82,3.22,3.11.5.58,1.08.87,1.74.87.61,0,1.11-.19,1.51-.58.41-.39.61-.89.61-1.49,0-.48-.15-.92-.45-1.33-1.12-1.71-2.64-3.1-4.57-4.14-1.93-1.05-4.09-1.58-6.49-1.58-2.56,0-4.88.6-7.01,1.8-2.12,1.2-3.79,2.84-5,4.92-1.21,2.09-1.82,4.39-1.82,6.91s.61,4.83,1.82,6.91c1.21,2.09,2.88,3.72,5,4.93,2.12,1.2,4.45,1.8,7.01,1.8,2.4,0,4.56-.52,6.49-1.57,1.93-1.04,3.45-2.43,4.57-4.14.3-.41.45-.85.45-1.33,0-.61-.2-1.1-.61-1.49-.4-.39-.9-.58-1.51-.58Z"/>
          <path class="cls-1" d="m361.41,66.83c-.42-.41-.93-.62-1.54-.62s-1.14.21-1.55.62c-.4.42-.6.94-.6,1.54v22.8c0,.6.2,1.12.6,1.54.41.41.93.62,1.55.62s1.12-.21,1.54-.62c.42-.42.63-.94.63-1.54v-22.8c0-.6-.21-1.12-.63-1.54Z"/>
          <path class="cls-1" d="m381.84,89.16h-11.06v-7.46h10.68c.53,0,.99-.19,1.36-.57s.57-.83.57-1.36c0-.56-.19-1.02-.57-1.39-.38-.36-.83-.54-1.36-.54h-10.68v-7.46h11.06c.53,0,.99-.18,1.36-.57.38-.38.57-.83.57-1.36s-.18-1.02-.57-1.38c-.38-.37-.83-.55-1.36-.55h-13.21c-.63,0-1.15.21-1.55.63-.41.42-.61.93-.61,1.53v22.19c0,.6.2,1.11.61,1.53.4.42.92.63,1.55.63h13.21c.53,0,.99-.19,1.36-.57.38-.38.57-.83.57-1.36,0-.56-.18-1.02-.57-1.39-.38-.37-.83-.54-1.36-.54Z"/>
          <path class="cls-1" d="m409.88,66.83c-.42-.41-.94-.62-1.57-.62s-1.12.21-1.54.62c-.42.42-.63.94-.63,1.54v17.13l-14.31-18.26c-.53-.68-1.19-1.02-2-1.02-.68,0-1.26.23-1.72.69-.47.47-.7,1.06-.7,1.76v22.5c0,.6.2,1.12.6,1.54.41.41.93.62,1.55.62s1.12-.21,1.54-.62c.42-.42.63-.94.63-1.54v-17.13l14.31,18.26c.53.68,1.19,1.02,2,1.02.71,0,1.29-.23,1.76-.72.47-.48.7-1.06.7-1.74v-22.49c0-.6-.21-1.12-.63-1.54Z"/>
          <path class="cls-1" d="m437.38,84.27c-.65,0-1.24.28-1.74.87-.81,1.29-1.89,2.32-3.22,3.11-1.34.78-2.81,1.17-4.43,1.17-1.75,0-3.33-.43-4.75-1.29-1.43-.86-2.56-2.02-3.39-3.48-.83-1.46-1.25-3.09-1.25-4.88s.42-3.42,1.25-4.88c.83-1.46,1.96-2.62,3.39-3.48,1.42-.86,3.01-1.29,4.75-1.29,1.61,0,3.09.39,4.43,1.17,1.34.78,2.41,1.82,3.22,3.11.5.58,1.09.87,1.74.87.61,0,1.11-.19,1.52-.58.4-.39.6-.89.6-1.49,0-.48-.15-.92-.45-1.33-1.11-1.71-2.63-3.1-4.57-4.14-1.93-1.05-4.09-1.58-6.49-1.58-2.56,0-4.88.6-7.01,1.8-2.12,1.2-3.79,2.84-5,4.92-1.21,2.09-1.81,4.39-1.81,6.91s.6,4.83,1.81,6.91c1.21,2.09,2.88,3.72,5,4.93,2.12,1.2,4.45,1.8,7.01,1.8,2.4,0,4.56-.52,6.49-1.57,1.94-1.04,3.46-2.43,4.57-4.14.3-.41.45-.85.45-1.33,0-.61-.2-1.1-.6-1.49-.41-.39-.91-.58-1.52-.58Z"/>
          <path class="cls-1" d="m458.62,89.16h-11.06v-7.46h10.68c.53,0,.98-.19,1.36-.57.38-.38.57-.83.57-1.36,0-.56-.19-1.02-.57-1.39-.38-.36-.83-.54-1.36-.54h-10.68v-7.46h11.06c.53,0,.99-.18,1.36-.57.38-.38.57-.83.57-1.36s-.19-1.02-.57-1.38c-.38-.37-.83-.55-1.36-.55h-13.22c-.63,0-1.14.21-1.54.63-.41.42-.61.93-.61,1.53v22.19c0,.6.2,1.11.61,1.53.4.42.92.63,1.54.63h13.22c.53,0,.99-.19,1.36-.57.38-.38.57-.83.57-1.36,0-.56-.19-1.02-.57-1.39-.38-.37-.83-.54-1.36-.54Z"/>
        </g>
        <path class="cls-1" d="m218.72,114.37c-1.24-2.12-2.94-3.79-5.1-5.01-2.16-1.22-4.56-1.84-7.18-1.84s-4.98.62-7.15,1.84c-2.16,1.22-3.87,2.89-5.1,5.01-1.24,2.13-1.85,4.48-1.85,7.05s.62,4.92,1.85,7.04c1.24,2.12,2.94,3.79,5.1,5.01,2.16,1.23,4.54,1.84,7.15,1.84s5.02-.61,7.18-1.84c2.16-1.22,3.87-2.89,5.1-5.01,1.24-2.12,1.85-4.47,1.85-7.04s-.62-4.92-1.85-7.05Zm-3.96,12.02c-.83,1.49-2,2.67-3.46,3.55-1.47.88-3.1,1.31-4.87,1.31s-3.4-.43-4.85-1.31-2.61-2.06-3.46-3.55c-.85-1.49-1.28-3.16-1.28-4.98s.43-3.49,1.28-4.98c.85-1.49,2-2.68,3.46-3.55,1.45-.88,3.07-1.32,4.85-1.32s3.4.44,4.87,1.32c1.46.87,2.62,2.05,3.46,3.55.83,1.49,1.25,3.15,1.25,4.98s-.42,3.48-1.25,4.98Z"/>
        <path class="cls-1" d="m243.81,124.34c-.68-1.04-1.64-1.86-2.87-2.46-.57-.28-1.19-.48-1.85-.63.23-.08.46-.18.68-.28,1.24-.58,2.2-1.39,2.88-2.44.68-1.04,1.02-2.21,1.02-3.52s-.33-2.51-1-3.59c-.67-1.08-1.62-1.94-2.84-2.56-1.23-.63-2.61-.95-4.16-.95h-9.12c-.64,0-1.17.22-1.58.64-.42.43-.63.94-.63,1.56v22.61c0,.61.21,1.14.63,1.56.41.42.94.63,1.58.63h10.28c1.54,0,2.93-.31,4.16-.93,1.22-.62,2.16-1.47,2.84-2.55.67-1.08,1-2.28,1-3.59s-.34-2.49-1.03-3.52Zm-15.16-12.6h6.65c.85,0,1.59.17,2.24.5.64.33,1.14.8,1.49,1.39.34.59.52,1.26.52,2.01s-.18,1.41-.52,2c-.35.59-.85,1.06-1.51,1.41-.66.34-1.39.52-2.22.52h-6.65v-7.83Zm11.21,17.43c-.36.59-.86,1.06-1.5,1.41-.64.35-1.39.52-2.2.52h-7.5v-7.83h7.5c.82,0,1.56.18,2.2.53.64.34,1.14.81,1.5,1.39.36.58.54,1.24.54,1.99s-.18,1.41-.54,2Z"/>
        <path class="cls-1" d="m267.38,123.07c-.86-1.1-1.9-1.91-3.11-2.43-1.21-.51-2.76-1.01-4.67-1.5-1.37-.38-2.42-.72-3.17-1-.74-.28-1.38-.68-1.89-1.18-.52-.5-.78-1.16-.78-1.99,0-.69.19-1.31.58-1.85.39-.53.94-.96,1.66-1.27.73-.31,1.56-.47,2.51-.47,1.29,0,2.4.33,3.34,1.01.94.66,1.69,1.55,2.22,2.66.28.36.57.63.83.79.27.17.63.25,1.06.25.64,0,1.18-.21,1.6-.62.43-.41.61-.95.56-1.62-.1-1.1-.58-2.15-1.43-3.12-.85-.98-1.97-1.75-3.36-2.34-1.39-.58-2.93-.87-4.6-.87-1.78,0-3.4.33-4.85,1-1.45.67-2.61,1.59-3.44,2.76-.83,1.17-1.25,2.47-1.25,3.92,0,1.75.43,3.14,1.28,4.18s1.85,1.81,3.03,2.31c1.17.5,2.68,1,4.54,1.49,1.39.36,2.49.7,3.3,1.03.81.32,1.49.75,2.01,1.29.53.54.79,1.25.79,2.13,0,.72-.22,1.37-.64,1.96-.43.59-1.02,1.05-1.77,1.37-.77.33-1.67.48-2.73.48-1.57,0-2.85-.33-3.84-.99-.99-.65-1.76-1.54-2.3-2.68-.26-.36-.53-.63-.82-.79-.28-.17-.63-.25-1.04-.25-.67,0-1.21.21-1.62.62-.41.42-.6.95-.58,1.62.13,1.16.62,2.22,1.49,3.18.86.97,2.02,1.74,3.47,2.3,1.46.57,3.1.85,4.93.85s3.54-.33,5.06-1c1.52-.67,2.72-1.59,3.6-2.78.87-1.18,1.31-2.52,1.31-4.01,0-1.85-.43-3.33-1.29-4.44Z"/>
        <path class="cls-1" d="m288.46,130.99h-11.28v-7.61h10.9c.53,0,1-.19,1.39-.58.39-.38.58-.85.58-1.39,0-.57-.19-1.04-.58-1.41-.38-.38-.85-.56-1.39-.56h-10.9v-7.6h11.28c.54,0,1-.19,1.39-.58.38-.38.58-.84.58-1.39s-.19-1.04-.58-1.4c-.39-.38-.85-.57-1.39-.57h-13.49c-.64,0-1.17.22-1.59.64-.41.43-.62.94-.62,1.56v22.61c0,.61.21,1.14.62,1.56.42.42.94.63,1.59.63h13.49c.54,0,1-.19,1.39-.58.38-.39.58-.85.58-1.39s-.19-1.04-.58-1.4c-.39-.38-.85-.56-1.39-.56Z"/>
        <path class="cls-1" d="m313.53,131.64l-5.59-7.5-2.33-3.11-3.78,2.24.86,1.16,7.33,9.92c.23.25.5.47.81.63.31.17.63.25.97.25.57,0,1.06-.19,1.49-.58.43-.38.66-.86.72-1.43.05-.56-.11-1.09-.47-1.58Zm-.27-19.67c-.75-1.26-1.81-2.25-3.19-2.97-1.38-.72-2.95-1.09-4.69-1.09h-9.04c-.64,0-1.17.22-1.59.64-.41.43-.62.94-.62,1.56v22.91c0,.62.21,1.14.62,1.57.42.42.94.63,1.59.63s1.14-.22,1.56-.63c.43-.43.64-.95.64-1.57v-8.6h6.84c.9,0,1.75-.09,2.56-.28.75-.18,1.47-.44,2.14-.79,1.38-.72,2.44-1.7,3.19-2.96.74-1.24,1.12-2.66,1.12-4.23s-.38-2.94-1.12-4.2Zm-3.98,6.4c-.38.67-.92,1.19-1.59,1.56-.67.37-1.44.56-2.31.56h-6.84v-8.64h6.84c.87,0,1.64.18,2.31.56.67.37,1.2.89,1.59,1.54.38.65.58,1.39.58,2.21s-.19,1.54-.58,2.2Z"/>
        <path class="cls-1" d="m340.81,109.13c-.13-.45-.38-.82-.76-1.1-.37-.28-.78-.43-1.25-.43-.43,0-.83.14-1.18.41s-.61.65-.79,1.14l-8.13,20.77-8.06-20.77c-.18-.48-.45-.87-.83-1.14-.38-.27-.81-.41-1.29-.41s-.92.15-1.29.45c-.38.29-.63.68-.78,1.15s-.12.96.06,1.44l8.93,22.34c.26.69.68,1.24,1.25,1.64.58.4,1.22.6,1.92.6s1.33-.2,1.91-.6c.58-.39.99-.94,1.25-1.64l8.97-22.49c.18-.46.2-.92.08-1.37Z"/>
        <path class="cls-1" d="m344.75,124.54v3.93h15.49v-3.93h-15.49Zm20.36,7.64l-9.46-22.34c-.28-.7-.71-1.24-1.28-1.64s-1.2-.6-1.9-.6-1.36.2-1.93.6c-.57.4-.99.94-1.28,1.64l-9.47,22.49c-.2.47-.24.93-.11,1.37.13.45.38.82.77,1.1.38.28.81.43,1.28.43.41,0,.79-.12,1.14-.35.35-.23.6-.55.76-.96l2.26-5.44,1.64-3.93,4.83-11.6,4.83,11.6,1.64,3.93,2.24,5.37c.18.43.44.78.81,1.02.36.24.74.37,1.15.37.52,0,.98-.15,1.38-.44.39-.3.67-.68.81-1.16.14-.48.11-.96-.1-1.44Z"/>
        <path class="cls-1" d="m384.55,108.48c-.39-.38-.85-.57-1.39-.57h-18.43c-.54,0-1,.19-1.39.57-.38.37-.58.83-.58,1.4s.19,1,.58,1.39c.39.39.85.58,1.39.58h7v21.18c0,.62.21,1.14.63,1.57.43.42.96.63,1.6.63s1.13-.22,1.54-.63c.41-.43.62-.95.62-1.57v-21.18h7.03c.54,0,1-.19,1.39-.58.38-.38.58-.84.58-1.39s-.19-1.04-.58-1.4Z"/>
        <path class="cls-1" d="m411.51,114.37c-1.24-2.12-2.93-3.79-5.09-5.01-2.16-1.22-4.56-1.84-7.19-1.84s-4.98.62-7.15,1.84c-2.16,1.22-3.87,2.89-5.1,5.01-1.24,2.13-1.85,4.48-1.85,7.05s.62,4.92,1.85,7.04c1.24,2.12,2.94,3.79,5.1,5.01,2.16,1.23,4.54,1.84,7.15,1.84s5.03-.61,7.19-1.84c2.16-1.22,3.86-2.89,5.09-5.01,1.24-2.12,1.85-4.47,1.85-7.04s-.61-4.92-1.85-7.05Zm-3.96,12.02c-.83,1.49-1.99,2.67-3.46,3.55-1.47.88-3.09,1.31-4.87,1.31s-3.39-.43-4.85-1.31c-1.45-.88-2.61-2.06-3.46-3.55-.85-1.49-1.28-3.16-1.28-4.98s.43-3.49,1.28-4.98c.85-1.49,2-2.68,3.46-3.55,1.46-.88,3.07-1.32,4.85-1.32s3.4.44,4.87,1.32c1.47.87,2.62,2.05,3.46,3.55.83,1.49,1.25,3.15,1.25,4.98s-.42,3.48-1.25,4.98Z"/>
        <path class="cls-1" d="m436.55,131.64l-5.6-7.5-2.32-3.11-3.78,2.24.86,1.16,7.33,9.92c.23.25.5.47.81.63s.63.25.97.25c.57,0,1.06-.19,1.49-.58.43-.38.66-.86.71-1.43.05-.56-.1-1.09-.46-1.58Zm-.27-19.67c-.75-1.26-1.81-2.25-3.19-2.97-1.38-.72-2.95-1.09-4.7-1.09h-9.03c-.64,0-1.18.22-1.59.64s-.62.94-.62,1.56v22.91c0,.62.21,1.14.62,1.57.41.42.94.63,1.59.63s1.14-.22,1.56-.63c.43-.43.64-.95.64-1.57v-8.6h6.83c.9,0,1.75-.09,2.56-.28.76-.18,1.48-.44,2.15-.79,1.38-.72,2.44-1.7,3.19-2.96.74-1.24,1.12-2.66,1.12-4.23s-.38-2.94-1.12-4.2Zm-3.98,6.4c-.38.67-.92,1.19-1.59,1.56-.67.37-1.44.56-2.32.56h-6.83v-8.64h6.83c.88,0,1.65.18,2.32.56.67.37,1.2.89,1.59,1.54.38.65.58,1.39.58,2.21s-.19,1.54-.58,2.2Z"/>
        <path class="cls-1" d="m461.86,109.47c.08.54-.05,1.06-.35,1.58l-9.09,14.54v7.45c0,.8-.43,1.5-1.07,1.88-.33.2-.71.32-1.13.32s-.79-.11-1.12-.32c-.65-.38-1.07-1.07-1.07-1.88v-7.45l-9.04-14.54c-.36-.52-.49-1.04-.41-1.59.09-.54.36-.98.77-1.32.43-.35.93-.52,1.5-.52.36,0,.69.08,1.02.27.32.17.6.44.84.77l7.55,12.29,7.59-12.34c.2-.3.47-.55.79-.72.33-.19.68-.27,1.06-.27.52,0,.99.17,1.42.54s.68.8.76,1.32Z"/>
      </g>
      <g>
        <path class="cls-1" d="m160.09,69.05h-68.53V.52c35.49,4.95,63.58,33.02,68.53,68.53Z"/>
        <path class="cls-1" d="m59.17,80.31c0,11.67,9.47,21.14,21.14,21.14s21.14-9.47,21.14-21.14h-21.14v-21.14c-11.67,0-21.14,9.47-21.14,21.14Z"/>
        <path class="cls-1" d="m56.39,104.56c-6.27-6.19-10.17-14.78-10.17-24.26,0-18.79,15.3-34.07,34.08-34.07v-9.54c-24.05,0-43.62,19.56-43.62,43.61,0,12.14,4.98,23.13,13.01,31.03l6.7-6.77Z"/>
        <path class="cls-1" d="m136.42,80.29h-9.54c0,25.69-20.89,46.59-46.58,46.59-12.73,0-24.3-5.14-32.7-13.45l-6.71,6.77c10.13,10.03,24.07,16.21,39.41,16.21,30.95,0,56.12-25.18,56.12-56.13Z"/>
        <path class="cls-1" d="m152.27,80.31h-1.19c0,.54-.01,1.07-.02,1.62-.97,38.07-32.21,68.75-70.48,68.75-8.9,0-17.41-1.67-25.25-4.7.15-.43.25-.88.25-1.35,0-2.26-1.83-4.09-4.09-4.09s-4.09,1.83-4.09,4.09,1.83,4.09,4.09,4.09c1.35,0,2.54-.66,3.28-1.67,7.94,3.08,16.54,4.79,25.55,4.83v8.74c44.28,0,80.31-36.03,80.31-80.31h-8.35Z"/>
        <path class="cls-1" d="m78.76,9.56c.51-.01,1.03-.02,1.55-.02V0C36.03,0,.01,36.02,0,80.29h8.87c.03,9.43,1.88,18.43,5.22,26.68-1.07.74-1.77,1.97-1.77,3.36,0,2.26,1.83,4.09,4.09,4.09.39,0,.76-.07,1.11-.17.03.06.06.12.09.17l.28-.29c1.52-.6,2.6-2.07,2.6-3.8,0-2.26-1.83-4.09-4.09-4.09-.43,0-.84.08-1.23.21-3.29-8.15-5.11-17.04-5.11-26.36C10.06,41.8,40.71,10.53,78.76,9.56Z"/>
      </g>
    </g>
  </g>
</svg>