<svg xmlns="http://www.w3.org/2000/svg" xmlns:xlink="http://www.w3.org/1999/xlink" width="35.688" height="35" viewBox="0 0 35.688 35"><defs><style>.a{fill:url(#a);}</style><linearGradient id="a" x1="0.01" y1="0.5" x2="0.99" y2="0.5" gradientUnits="objectBoundingBox"><stop offset="0.06" stop-color="#ffffff"/><stop offset="0.09" stop-color="#ffffff"/><stop offset="0.37" stop-color="#ffffff"/><stop offset="0.66" stop-color="#ffffff"/><stop offset="1" stop-color="#ffffff"/></linearGradient></defs><g transform="translate(-46.85)"><g transform="translate(46.85)"><path class="a" d="M98.878,0H98.19a17.5,17.5,0,0,0,0,35h.688a17.5,17.5,0,1,0,0-35ZM87.4,27.137a14.721,14.721,0,0,1,0-19.287A11.82,11.82,0,0,0,107.029,20.03a9.06,9.06,0,0,1-7.982,12.186h-.513A14.712,14.712,0,0,1,87.4,27.143ZM91.488,17.5a9.039,9.039,0,0,1,14.092,0,9.039,9.039,0,0,1-14.092,0Zm18.185,9.643A11.82,11.82,0,0,0,90.039,14.964,9.06,9.06,0,0,1,98.021,2.779c.169,0,.341-.015.513-.015a14.737,14.737,0,0,1,11.139,24.38Z" transform="translate(-80.69)"/></g></g></svg>
