<?xml version="1.0" encoding="UTF-8"?>
<svg id="Layer_2" data-name="Layer 2" xmlns="http://www.w3.org/2000/svg" viewBox="0 0 22.36 16.1">
  <defs>
    <style>
      .cls-1 {
        fill: #e4587c;
      }

      .cls-1, .cls-2 {
        stroke-width: 0px;
      }

      .cls-2 {
        fill: #028691;
      }
    </style>
  </defs>
  <g id="Layer_1-2" data-name="Layer 1">
    <g>
      <path class="cls-2" d="m15.23,11.97v4.13H0v-4.38c0-.52.32-.98.81-1.17,1.75-.69,4.03-1.1,6.52-1.1,1.14,0,2.24.09,3.26.25.99.15,1.91.37,2.73.65.42.15.82.31,1.18.48.45.21.73.65.73,1.14"/>
      <polygon class="cls-1" points="16.83 11.47 16.84 12.07 17.17 11.66 17 11.28 16.83 11.47"/>
      <path class="cls-2" d="m7.33,0C5.07,0,3.25,1.83,3.25,4.09s1.82,4.08,4.08,4.08c1.34,0,2.53-.64,3.27-1.64.51-.68.82-1.53.82-2.44s-.31-1.77-.82-2.45c-.74-1-1.93-1.64-3.27-1.64"/>
      <path class="cls-1" d="m14.46,8.17c2.26,0,4.09-1.83,4.09-4.08S16.72,0,14.46,0c-.97,0-1.86.34-2.55.91.7.87,1.12,1.98,1.12,3.18s-.42,2.3-1.12,3.17c.69.57,1.58.91,2.55.91"/>
      <path class="cls-1" d="m21.63,10.82c-1.81-.84-4.36-1.37-7.17-1.37h-.09c.24.08.47.17.7.26.03.02.08.03.14.06.2.08.54.22.81.4,0,0,.24.15.47.46.04.05.07.11.11.17.05.08.09.18.14.28.05.15.1.31.1.49.01.03.01.06.01.09s0,.06-.01.09c.01.02.01.03,0,.05v4.3h5.52v-4.13c0-.49-.29-.94-.73-1.15"/>
    </g>
  </g>
</svg>