<?xml version="1.0" encoding="UTF-8"?>
<svg id="Layer_2" data-name="Layer 2" xmlns="http://www.w3.org/2000/svg" viewBox="0 0 24.43 24.51">
  <defs>
    <style>
      .cls-1 {
        fill: #e4587c;
      }

      .cls-1, .cls-2 {
        fill-rule: evenodd;
        stroke-width: 0px;
      }

      .cls-2 {
        fill: #028691;
      }
    </style>
  </defs>
  <g id="Layer_1-2" data-name="Layer 1">
    <g>
      <path class="cls-2" d="m.64,3.07c.49.3,1.26.6,2.21.82,1.89.46,4.47.7,7.05.7s5.16-.24,7.05-.7c.95-.23,1.72-.52,2.21-.82.49-.3.64-.55.64-.77v-.04c-.02-.21-.18-.45-.64-.74-.49-.3-1.26-.6-2.21-.82-1.89-.46-4.47-.7-7.05-.7S4.73.24,2.84.7c-.94.23-1.72.52-2.21.82-.49.3-.64.56-.64.78s.15.47.64.77"/>
      <path class="cls-1" d="m12.15,11.43c-.74.05-1.5.06-2.25.06-2.65,0-5.29-.23-7.31-.73-1.01-.24-1.88-.55-2.53-.96-.02-.02-.04-.03-.06-.05v4.13c0,.23.15.48.63.78.49.3,1.26.59,2.21.82,1.73.42,4.04.66,6.42.69v-.31s.01-.24.24-.32l1.19-.38c.19-.06.27-.27.18-.44l-.59-1.13c-.06-.12-.04-.26.05-.36l1.81-1.81Z"/>
      <path class="cls-2" d="m9.26,19.55v-2.28c-2.43-.03-4.82-.26-6.67-.71-1.01-.25-1.88-.55-2.53-.97-.02,0-.04-.03-.06-.04v4.13c0,.22.15.48.63.78.49.3,1.26.59,2.21.82,1.88.45,4.47.69,7.05.69h.45l.7-1.35-1.3-.41c-.29-.09-.48-.36-.48-.66"/>
      <path class="cls-2" d="m16.94,9.7c.44-.11.85-.23,1.19-.36.41-.15.75-.3,1.01-.47.49-.3.63-.55.63-.77V3.98s-.04.02-.06.03c-.65.41-1.52.71-2.53.96-2.03.49-4.67.73-7.31.73s-5.29-.24-7.31-.73c-1.01-.25-1.88-.54-2.53-.96-.02,0-.04-.03-.05-.04v4.13c0,.22.15.47.63.77.49.3,1.26.6,2.21.83,1.89.45,4.47.69,7.05.69,1.9,0,3.8-.13,5.44-.39.57-.08,1.11-.18,1.61-.3"/>
      <path class="cls-2" d="m24.43,18.71v-1.75l-1.48-.47c-.12-.49-.32-.96-.57-1.38l.72-1.38-1.23-1.23-1.38.72c-.22-.14-.46-.26-.7-.35-.22-.09-.45-.17-.68-.22l-.47-1.48h-1.75l-.47,1.48c-.49.12-.95.31-1.38.57l-1.38-.72-1.23,1.23.72,1.38c-.18.3-.33.63-.45.97-.05.14-.08.28-.12.41l-1.48.47v1.75l1.48.47c.12.49.31.96.57,1.38l-.69,1.33-.03.05,1.23,1.23,1.38-.72c.43.25.89.45,1.38.57l.47,1.48h1.75l.47-1.48c.49-.12.96-.32,1.38-.57l1.38.72,1.23-1.23-.72-1.38c.25-.42.45-.89.57-1.38l1.48-.47Zm-6.66,2.46c-.11,0-.23,0-.34-.02-1.68-.18-3-1.59-3-3.32,0-.28.04-.56.1-.82.11-.44.31-.84.57-1.19.61-.81,1.58-1.33,2.67-1.33.44,0,.86.08,1.25.25,1.22.49,2.09,1.68,2.09,3.09,0,1.84-1.49,3.34-3.34,3.34"/>
      <path class="cls-1" d="m18.96,16c-.34-.23-.75-.36-1.2-.36-.85,0-1.6.49-1.96,1.2-.16.29-.24.63-.24.99,0,1.21.98,2.2,2.2,2.2.91,0,1.69-.55,2.02-1.34.11-.27.18-.55.18-.86s-.06-.59-.18-.85c-.17-.4-.46-.75-.83-.98"/>
    </g>
  </g>
</svg>