<?xml version="1.0" encoding="UTF-8"?>
<svg id="Layer_2" data-name="Layer 2" xmlns="http://www.w3.org/2000/svg" viewBox="0 0 19.1 23.51">
  <defs>
    <style>
      .cls-1 {
        fill: #e4587c;
      }

      .cls-1, .cls-2 {
        stroke-width: 0px;
      }

      .cls-2 {
        fill: #028691;
      }
    </style>
  </defs>
  <g id="Layer_1-2" data-name="Layer 1">
    <g>
      <polygon class="cls-1" points="13.03 18.13 13.03 22.76 18.14 18.13 13.03 18.13"/>
      <path class="cls-2" d="m17.83,23.51c.69,0,1.25-.56,1.25-1.25v-3.08l-4.79,4.34h3.54Z"/>
      <path class="cls-2" d="m7.99,7.46l-.52,1.49h1.03l-.51-1.49Zm0,0l-.52,1.49h1.03l-.51-1.49ZM17.63,0H1.46C.65,0,0,.65,0,1.46v20.58c0,.81.65,1.47,1.46,1.47h10.29v-6.25c0-.2.16-.37.37-.37h6.98V1.46c0-.81-.66-1.46-1.47-1.46M5.47,8.87h-1.91v1.66h-1.11v-4.09h3.39v.77h-2.28v.89h1.91v.77Zm3.63,1.66l-.32-.83h-1.58l-.32.83h-1.12l1.68-4.09h1.15l1.68,4.09h-1.17Zm3.01,0h-1.11v-4.09h1.11v4.09Zm3.66,0l-1-1.51h-.6v1.51h-1.11v-4.09h2.06c1.23,0,1.72.38,1.72,1.29,0,.67-.27,1.05-.9,1.2l1.09,1.6h-1.26Zm-.77-3.32h-.83v1.04h.83c.54,0,.73-.15.73-.52s-.19-.52-.73-.52m-7.53,1.74h1.03l-.51-1.49-.52,1.49Zm.52-1.49l-.52,1.49h1.03l-.51-1.49Zm0,0l-.52,1.49h1.03l-.51-1.49Z"/>
    </g>
  </g>
</svg>