<?xml version="1.0" encoding="UTF-8"?>
<svg id="Layer_2" data-name="Layer 2" xmlns="http://www.w3.org/2000/svg" viewBox="0 0 22.74 21.12">
  <defs>
    <style>
      .cls-1 {
        fill: #e4587c;
      }

      .cls-1, .cls-2 {
        stroke-width: 0px;
      }

      .cls-2 {
        fill: #028691;
      }
    </style>
  </defs>
  <g id="Layer_1-2" data-name="Layer 1">
    <g>
      <path class="cls-2" d="m2.44,6.5h7.86c1.45-1.02,3.22-1.62,5.13-1.62.22,0,.44,0,.66.02.1-.26.15-.54.15-.84v-1.62c0-1.34-1.1-2.44-2.44-2.44H2.44C1.1,0,0,1.1,0,2.44v1.62c0,1.34,1.1,2.44,2.44,2.44"/>
      <path class="cls-2" d="m16.39,6.56c-4.77-.61-8.82,3.42-8.21,8.2.41,3.25,3.04,5.88,6.29,6.3,4.77.61,8.81-3.42,8.21-8.19-.41-3.25-3.04-5.88-6.29-6.3m-.47,5.5c.33,0,.61.28.61.61s-.28.61-.61.61h-3.31c-.03.17-.04.35-.04.52s.01.35.04.52h3.31c.33,0,.61.27.61.61s-.28.61-.61.61h-2.87c.61.99,1.68,1.61,2.87,1.61.69,0,1.35-.21,1.91-.6h.5c.15,0,.3.06.37.19.17.27.09.63-.17.82-.77.53-1.67.82-2.61.82-1.85,0-3.52-1.13-4.22-2.84h-.88c-.33,0-.61-.27-.61-.61s.28-.61.61-.61h.56c-.02-.17-.03-.35-.03-.52s0-.35.03-.53h-.56c-.33,0-.61-.27-.61-.61s.28-.61.61-.61h.88c.7-1.7,2.37-2.83,4.22-2.83.94,0,1.84.28,2.61.82.28.2.35.57.15.85-.19.28-.57.34-.85.15-.56-.39-1.22-.6-1.91-.6-1.18,0-2.26.62-2.87,1.61h2.87Z"/>
      <path class="cls-1" d="m2.44,11.37h4.4c.33-1.2.93-2.31,1.7-3.25H2.44c-.58,0-1.13-.12-1.63-.34-.38-.17-.81.09-.81.51v.65c0,1.34,1.1,2.44,2.44,2.44"/>
      <path class="cls-2" d="m6.5,13.81c0-.28.02-.54.04-.81H2.44c-.58,0-1.13-.12-1.63-.34C.43,12.49,0,12.75,0,13.16v.64C0,15.15,1.1,16.24,2.44,16.24h4.4c-.23-.77-.34-1.59-.34-2.44Z"/>
    </g>
  </g>
</svg>