<?xml version="1.0" encoding="UTF-8"?>
<svg id="Layer_2" data-name="Layer 2" xmlns="http://www.w3.org/2000/svg" viewBox="0 0 17.14 22.94">
  <defs>
    <style>
      .cls-1 {
        fill: #e4587c;
      }

      .cls-1, .cls-2 {
        fill-rule: evenodd;
        stroke-width: 0px;
      }

      .cls-2 {
        fill: #028691;
      }
    </style>
  </defs>
  <g id="Layer_1-2" data-name="Layer 1">
    <g>
      <path class="cls-2" d="m11.56,8.52c0,1.65-1.34,2.99-2.99,2.99s-2.98-1.34-2.98-2.99,1.33-2.98,2.98-2.98,2.99,1.34,2.99,2.98"/>
      <path class="cls-2" d="m11.56,8.52c0,1.65-1.34,2.99-2.99,2.99s-2.98-1.34-2.98-2.99,1.33-2.98,2.98-2.98,2.99,1.34,2.99,2.98"/>
      <path class="cls-2" d="m14.06,14.62c.05-.18.06-.37.05-.57-.04-.44.08-.83.34-1.18.03-.05.07-.09.1-.14.26-.37.59-.59,1.03-.69.52-.12.93-.45,1.08-.92s0-.97-.35-1.38c-.28-.33-.42-.72-.42-1.16v-.18c0-.44.14-.82.42-1.16.35-.41.5-.92.35-1.38s-.57-.78-1.08-.92c-.43-.1-.77-.33-1.03-.69-.03-.05-.07-.09-.1-.14-.26-.35-.38-.74-.34-1.18.04-.54-.14-1.03-.54-1.31-.39-.29-.92-.31-1.42-.11-.41.17-.81.18-1.23.04-.06-.02-.11-.03-.16-.05-.42-.13-.74-.38-.97-.76-.28-.46-.72-.75-1.21-.75s-.92.29-1.2.75c-.23.38-.55.63-.97.76-.05.02-.11.03-.16.05-.42.14-.82.13-1.23-.04-.5-.2-1.03-.18-1.42.11-.4.28-.58.78-.54,1.31.04.44-.08.83-.34,1.18-.03.05-.07.09-.1.14-.26.36-.59.58-1.03.69-.52.13-.93.45-1.09.92-.15.46,0,.97.34,1.38.29.34.42.72.42,1.16v.18c0,.44-.14.82-.42,1.16-.35.41-.49.92-.34,1.38.15.46.56.79,1.09.92.43.1.76.33,1.03.69.03.05.06.09.1.14.26.35.38.74.34,1.18-.01.2,0,.39.05.57l-3.09,6.2h.02s.96-.41.96-.41l2.39-1.03.61,2.54.25,1.02h.02s3.24-6.51,3.24-6.51c.28.35.66.56,1.07.56s.8-.22,1.07-.56l3.25,6.51h.02s.25-1.03.25-1.03l.61-2.54,2.39,1.03.97.42h.01s-3.08-6.21-3.08-6.21Zm-5.48-1.34c-2.64,0-4.79-2.14-4.79-4.78s2.14-4.79,4.79-4.79,4.78,2.14,4.78,4.79-2.14,4.78-4.78,4.78"/>
      <path class="cls-1" d="m11.56,8.52c0,1.65-1.34,2.99-2.99,2.99s-2.98-1.34-2.98-2.99,1.33-2.98,2.98-2.98,2.99,1.34,2.99,2.98"/>
    </g>
  </g>
</svg>