<?xml version="1.0" encoding="UTF-8"?>
<svg id="Layer_2" data-name="Layer 2" xmlns="http://www.w3.org/2000/svg" viewBox="0 0 19.1 23.51">
  <defs>
    <style>
      .cls-1 {
        fill: #e4587c;
      }

      .cls-1, .cls-2 {
        stroke-width: 0px;
      }

      .cls-2 {
        fill: #028691;
      }
    </style>
  </defs>
  <g id="Layer_1-2" data-name="Layer 1">
    <g>
      <polygon class="cls-1" points="13.02 18.13 13.02 22.76 18.14 18.13 13.02 18.13"/>
      <path class="cls-2" d="m17.83,23.51c.69,0,1.25-.56,1.25-1.25v-3.08l-4.79,4.34h3.54Z"/>
      <path class="cls-2" d="m8.12,8.37c.08.21.12.44.12.7s-.04.49-.12.7c-.08.21-.19.39-.33.54-.15.15-.32.27-.52.35-.2.09-.42.13-.67.13s-.47-.04-.67-.13c-.2-.08-.37-.2-.51-.35-.15-.15-.26-.33-.33-.54-.08-.21-.12-.44-.12-.7s.04-.49.12-.7c.07-.21.18-.39.33-.54.14-.15.31-.27.51-.35.2-.08.42-.13.67-.13s.47.05.67.13c.2.08.37.2.52.35.14.15.25.33.33.54"/>
      <path class="cls-2" d="m17.63,0H1.46C.65,0,0,.65,0,1.46v20.58c0,.81.65,1.47,1.46,1.47h10.29v-6.25c0-.2.16-.37.37-.37h6.98V1.46c0-.81-.66-1.46-1.47-1.46m-8.16,10.34c-.15.38-.36.71-.64.98-.27.28-.6.49-.97.64-.38.16-.8.23-1.26.23s-.87-.07-1.25-.23c-.38-.15-.71-.36-.98-.64-.27-.27-.48-.6-.63-.98-.15-.39-.23-.81-.23-1.27s.08-.88.23-1.26c.15-.39.36-.72.63-.99.27-.28.6-.49.98-.64.38-.16.8-.23,1.25-.23s.88.07,1.26.23c.37.15.7.36.97.64.28.27.49.6.64.99.15.38.23.8.23,1.26s-.08.88-.23,1.27m5.73-2.97h-1.74c-.08,0-.15.01-.22.04-.07.02-.13.05-.17.1-.04.04-.08.1-.1.16-.03.06-.04.13-.04.21,0,.07.01.13.03.2.02.06.06.12.1.18.05.06.1.13.17.19.07.07.16.14.27.22.22.18.4.35.56.51.16.16.28.31.38.47.1.16.17.31.22.47.05.16.07.32.07.48,0,.23-.04.43-.12.6-.08.18-.2.33-.35.45-.16.13-.36.22-.59.29-.24.06-.51.09-.83.09h-2.18v-1.27h1.9c.08,0,.16-.01.23-.04.06-.02.12-.05.17-.09.05-.04.08-.1.11-.16.02-.06.03-.13.03-.21,0-.07-.01-.13-.03-.2-.03-.06-.06-.13-.11-.19-.05-.07-.11-.14-.18-.21-.08-.07-.17-.14-.27-.23-.21-.16-.4-.32-.55-.48-.15-.16-.27-.31-.37-.47-.09-.15-.17-.31-.21-.47-.05-.15-.07-.31-.07-.48,0-.22.03-.42.11-.6.08-.18.2-.33.36-.45.15-.13.35-.22.59-.28.23-.07.51-.1.82-.1h2.01v1.27Z"/>
    </g>
  </g>
</svg>