<?xml version="1.0" encoding="UTF-8"?>
<svg id="Layer_2" data-name="Layer 2" xmlns="http://www.w3.org/2000/svg" viewBox="0 0 23.55 18.81">
  <defs>
    <style>
      .cls-1 {
        fill: #e4587c;
      }

      .cls-1, .cls-2 {
        stroke-width: 0px;
      }

      .cls-2 {
        fill: #028691;
      }
    </style>
  </defs>
  <g id="Layer_1-2" data-name="Layer 1">
    <g>
      <path class="cls-2" d="m9.13.11L.11,9.13c-.15.15-.15.39,0,.54l9.02,9.02c.24.24.65.07.65-.27v-2.9c0-.1-.04-.2-.11-.27l-5.58-5.58c-.15-.15-.15-.39,0-.54l5.58-5.58c.07-.07.11-.17.11-.27V.38c0-.34-.41-.51-.65-.27"/>
      <path class="cls-2" d="m14.41,18.69l9.02-9.02c.15-.15.15-.39,0-.54L14.41.11c-.24-.24-.65-.07-.65.27v2.9c0,.1.04.2.11.27l5.58,5.58c.15.15.15.39,0,.54l-5.58,5.58c-.07.07-.11.17-.11.27v2.9c0,.34.41.51.65.27"/>
      <path class="cls-1" d="m11.5,12.61l-2.94-2.94c-.15-.15-.15-.39,0-.54l2.94-2.94c.15-.15.39-.15.54,0l2.94,2.94c.15.15.15.39,0,.54l-2.94,2.94c-.15.15-.39.15-.54,0"/>
    </g>
  </g>
</svg>