<?xml version="1.0" encoding="UTF-8"?>
<svg id="Layer_2" data-name="Layer 2" xmlns="http://www.w3.org/2000/svg" viewBox="0 0 26.03 23.16">
  <defs>
    <style>
      .cls-1 {
        fill: #e4587c;
      }

      .cls-1, .cls-2 {
        fill-rule: evenodd;
        stroke-width: 0px;
      }

      .cls-2 {
        fill: #028691;
      }
    </style>
  </defs>
  <g id="Layer_1-2" data-name="Layer 1">
    <g>
      <path class="cls-1" d="m18.08,20.99H7.95c-.59,0-1.08.49-1.08,1.09s.49,1.08,1.08,1.08h10.13c.6,0,1.08-.48,1.08-1.08s-.48-1.09-1.08-1.09m-9.04,0h7.95v-2.65h-7.95v2.65Z"/>
      <path class="cls-2" d="m25.31,0H.72c-.4,0-.72.33-.72.73v15.18c0,.4.32.72.72.72h24.59c.4,0,.72-.32.72-.72V.73c0-.4-.32-.73-.72-.73m-2.58,4.76l-4.43,5.07-2.59-4.65-6.31,7.92-1.81-3.72-3.12,4.3c-.15.2-.38.3-.61.3-.15,0-.31-.04-.44-.14-.33-.24-.41-.71-.16-1.05l4.59-6.31,1.86,3.82,6.22-7.8,2.64,4.74,3.03-3.47c.27-.31.75-.35,1.06-.07.31.27.35.74.07,1.06"/>
    </g>
  </g>
</svg>