<?xml version="1.0" encoding="UTF-8"?>
<svg id="Layer_2" data-name="Layer 2" xmlns="http://www.w3.org/2000/svg" viewBox="0 0 24.01 24.02">
  <defs>
    <style>
      .cls-1 {
        fill: #e4587c;
      }

      .cls-1, .cls-2 {
        stroke-width: 0px;
      }

      .cls-2 {
        fill: #028691;
      }
    </style>
  </defs>
  <g id="Layer_1-2" data-name="Layer 1">
    <g>
      <path class="cls-2" d="m12.78,2.16h2.45V.53c0-.29-.24-.53-.53-.53H.53C.24,0,0,.24,0,.53v16.74c0,.29.24.53.53.53h1.61v-2.52s-.02-.1-.02-.14V2.67c0-.29.24-.53.53-.53h9.94c.07,0,.14,0,.19.02"/>
      <path class="cls-2" d="m18.35,10.21c-.4-.08-.81-.12-1.23-.12-1.06,0-2.04.24-2.95.68-2.14,1-3.68,3.09-3.92,5.59-.02.24-.02.48-.02.72,0,.62.08,1.21.24,1.78.02.07.05.13.05.21h0c.21.69.52,1.33.9,1.9,1.25,1.84,3.34,3.05,5.7,3.05,3.8,0,6.89-3.12,6.89-6.96,0-3.43-2.43-6.27-5.66-6.85m-1.23,12.16c-1.36,0-2.61-.53-3.54-1.4-1.04-.97-1.7-2.36-1.7-3.89,0-2.9,2.36-5.28,5.24-5.28.42,0,.84.05,1.23.16,2.29.55,4.01,2.62,4.01,5.12,0,2.91-2.36,5.29-5.24,5.29"/>
      <path class="cls-1" d="m19.91,14.41l-3.48,3.44c-.19.19-.5.17-.7-.02l-1.39-1.59-1.37,1.35,2.79,2.93c.19.19.5.19.7,0l4.85-4.76-1.39-1.35Z"/>
      <path class="cls-2" d="m8.14,13.07c-.39,0-.72-.31-.72-.72v-.7c0-.4.31-.72.72-.72h3.56c.5-.46,1.06-.85,1.66-1.17h-5.22c-.39,0-.72-.32-.72-.72v-.7c0-.41.31-.72.72-.72h5.23c.39,0,.72.31.72.72v.7c0,.17-.06.33-.13.44.71-.32,1.47-.52,2.27-.62.32-.04.65-.06.99-.06.38,0,.76.03,1.13.08V3.66c0-.29-.24-.53-.53-.53H3.62c-.29,0-.53.24-.53.53v16.78c0,.29.24.53.53.53h6.37s0-.01,0-.02c-.09-.16-.17-.32-.24-.49-.16-.34-.3-.69-.4-1.06-.05-.15-.09-.31-.13-.47,0-.03,0-.06-.02-.09-.13-.58-.2-1.19-.2-1.81,0-.25,0-.5.03-.74,0,.08-.02.14-.02.22h-.86c-.41,0-.72-.32-.72-.73v-.69c0-.41.33-.72.72-.72h1.29c.15-.45.35-.89.57-1.3h-1.86Z"/>
      <path class="cls-2" d="m9.3,14.81c-.14.46-.23.94-.27,1.43.05-.49.14-.98.27-1.43"/>
      <path class="cls-2" d="m9.44,14.37h-.01c-.05.15-.1.29-.13.44.04-.15.09-.3.14-.44"/>
    </g>
  </g>
</svg>