<?xml version="1.0" encoding="UTF-8"?>
<svg id="Layer_2" data-name="Layer 2" xmlns="http://www.w3.org/2000/svg" viewBox="0 0 27.15 27.77">
  <defs>
    <style>
      .cls-1 {
        fill: #e4587c;
      }

      .cls-1, .cls-2 {
        fill-rule: evenodd;
        stroke-width: 0px;
      }

      .cls-2 {
        fill: #028691;
      }
    </style>
  </defs>
  <g id="Layer_1-2" data-name="Layer 1">
    <g>
      <path class="cls-2" d="m11.04,17.31l2.54,4.39,2.54-4.39,2.07-3.59c.21-.36-.05-.8-.46-.8h-1.84c-.21,0-.39-.16-.41-.37L13.97.39c-.06-.52-.82-.52-.88,0l-1.49,12.15c-.02.21-.2.38-.42.38h-1.75c-.41,0-.67.45-.46.8l2.07,3.59h0Z"/>
      <path class="cls-2" d="m10.41,18.42l.99,1.71c-1.42.1-2.81.39-4.15.87-1.3.51-2.08,1.21-2.08,2.03,0,.92,1.01,1.7,2.64,2.23,1.88.54,3.82.8,5.77.77,1.95.03,3.9-.23,5.77-.77,1.63-.52,2.64-1.31,2.64-2.23,0-.82-.78-1.52-2.08-2.03-1.34-.48-2.73-.77-4.15-.87l.99-1.71c3.04.26,5.69.89,7.57,1.76,1.78.82,2.84,1.81,2.84,2.85,0,1.23-1.46,2.38-3.82,3.25-2.49.92-5.94,1.49-9.76,1.49s-7.27-.57-9.76-1.49c-2.36-.87-3.82-2.03-3.82-3.25,0-1.04,1.06-2.04,2.84-2.85,1.88-.86,4.53-1.5,7.57-1.76h0Z"/>
      <path class="cls-1" d="m13.2,23.22c.1.21.35.29.56.19.07-.04.13-.09.17-.16l1.24-2.14c1.39.07,2.76.34,4.07.8.9.35,1.43.75,1.43,1.14,0,.46-.73.93-1.91,1.31-1.69.48-3.44.71-5.19.69-1.76.03-3.5-.2-5.19-.68-1.18-.38-1.91-.85-1.91-1.31,0-.39.54-.79,1.43-1.14,1.31-.46,2.68-.73,4.07-.8l1.23,2.12Z"/>
    </g>
  </g>
</svg>