<?xml version="1.0" encoding="UTF-8"?>
<svg id="Layer_2" data-name="Layer 2" xmlns="http://www.w3.org/2000/svg" viewBox="0 0 26.6 23.38">
  <defs>
    <style>
      .cls-1 {
        fill: #e4587c;
      }

      .cls-1, .cls-2 {
        stroke-width: 0px;
      }

      .cls-2 {
        fill: #028691;
      }
    </style>
  </defs>
  <g id="Layer_1-2" data-name="Layer 1">
    <g>
      <path class="cls-2" d="m0,18.48c0,.32.45.39.54.08l3-9.52c.04-.13.15-.21.28-.21h18.26v-.05s0-4.28,0-4.28c0-.27-.22-.49-.49-.49h-8.1c-.23,0-.46-.11-.6-.29L9.97.18c-.09-.11-.23-.18-.38-.18H.49c-.27,0-.49.22-.49.49v18Z"/>
      <path class="cls-1" d="m23.42,19.46H2.4c-.21,0-.4.14-.46.34l-.93,2.94c-.1.31.14.63.46.63h21.02c.21,0,.4-.14.46-.34l.93-2.94c.1-.31-.14-.63-.46-.63"/>
      <path class="cls-2" d="m2.89,18.1h21.02c.21,0,.4-.14.46-.34l2.21-7c.1-.31-.14-.63-.47-.63H5.09c-.21,0-.4.14-.46.34l-2.21,7c-.1.31.14.63.47.63"/>
    </g>
  </g>
</svg>