<?xml version="1.0" encoding="UTF-8"?>
<svg id="Layer_2" data-name="Layer 2" xmlns="http://www.w3.org/2000/svg" viewBox="0 0 31.77 21.29">
  <defs>
    <style>
      .cls-1 {
        fill: #e4587c;
      }

      .cls-1, .cls-2 {
        stroke-width: 0px;
      }

      .cls-2 {
        fill: #028691;
      }
    </style>
  </defs>
  <g id="Layer_1-2" data-name="Layer 1">
    <g>
      <path class="cls-2" d="m8.43,8.85c2.23,0,4.04-1.81,4.04-4.04S10.66.77,8.43.77s-4.04,1.81-4.04,4.04,1.81,4.04,4.04,4.04"/>
      <path class="cls-2" d="m9.74,10.45h-2.62c-3.92,0-7.12,3.19-7.12,7.12v1.86h3.16v-3.05c0-.44.36-.8.8-.8s.8.36.8.8v3.05h7.33v-3.05c0-.44.36-.8.8-.8s.8.36.8.8v3.05h3.16v-1.86c0-3.92-3.19-7.12-7.12-7.12"/>
      <rect class="cls-2" x="25.2" width="6.57" height="4.31"/>
      <rect class="cls-2" x="25.2" y="8.49" width="6.57" height="4.31"/>
      <rect class="cls-2" x="25.2" y="16.98" width="6.57" height="4.31"/>
      <path class="cls-1" d="m20.72,2.87h2.43c.33,0,.61-.32.61-.71s-.27-.72-.61-.72h-3.04c-.33,0-.61.32-.61.72v7.78h-2.62c-.33,0-.61.32-.61.71s.27.72.61.72h2.62v7.77c0,.39.27.71.61.71h3.04c.33,0,.61-.32.61-.71s-.27-.71-.61-.71h-2.43v-7.06h2.43c.33,0,.61-.32.61-.72s-.27-.71-.61-.71h-2.43V2.87Z"/>
    </g>
  </g>
</svg>