<?xml version="1.0" encoding="UTF-8"?>
<svg id="Layer_2" data-name="Layer 2" xmlns="http://www.w3.org/2000/svg" viewBox="0 0 20.78 22.55">
  <defs>
    <style>
      .cls-1 {
        fill: #e4587c;
      }

      .cls-1, .cls-2 {
        stroke-width: 0px;
      }

      .cls-2 {
        fill: #028691;
      }
    </style>
  </defs>
  <g id="Layer_1-2" data-name="Layer 1">
    <g>
      <path class="cls-2" d="m17.13,12.06c-.4-.09-.82-.14-1.26-.14-1.06,0-2.05.29-2.91.79-.06.04-.13.02-.16-.05-.38-.9-1.17-2.42-2.71-4.34-.2-.25-.62-.14-.65.19-.09.89-.24,2.23-.37,2.93-.4,2.05-1.74,1.91-1.74,1.91-1.39-.16-1.33-1.55-1.29-2.03,0-.06-.07-.1-.11-.06-1.05.75-1.79,1.94-1.95,3.33-.15,1.36.29,2.65,1.12,3.6t.01.01s2.15,2.37,5.33,1.2c.29.89.79,1.69,1.46,2.33.07.06.05.17-.04.2-.7.27-1.44.47-2.2.55C4.43,23.07.01,19,.01,13.89.01,13.89-.38,9.95,3.08,4.78c.35-.52.74-1.05,1.17-1.59.19-.24.58-.11.59.2.04,1.09.28,2.73,1.42,2.93,1.48.26,1.83-1.48,1.83-1.48C8.92,1.34,11.39.29,13.27,0c.27-.04.49.24.36.49-.43.87-.67,1.85-.67,2.89,0,2.1.99,3.98,2.53,5.17.79,1.01,1.36,2.21,1.64,3.51"/>
      <path class="cls-1" d="m15.87,12.72c-2.71,0-4.91,2.2-4.91,4.91s2.2,4.9,4.91,4.9,4.91-2.19,4.91-4.9-2.2-4.91-4.91-4.91m3.16,5.36c-.02.24-.23.41-.45.41h-.05c-.25-.02-.43-.24-.4-.49l.1-1.06-2.09,2.13c-.09.09-.2.14-.32.14-.12,0-.24-.04-.33-.12l-1.03-1.02-1.52,1.55c-.09.09-.21.14-.33.14-.12,0-.24-.05-.32-.14-.18-.17-.18-.46-.01-.64l1.85-1.87c.08-.09.2-.14.32-.14.12.01.24.05.33.14l1.03,1.01,1.78-1.81-1.06.12c-.26.03-.47-.15-.51-.39-.03-.26.15-.47.39-.51l2.34-.27c.14-.01.27.03.37.12.1.1.15.24.12.37l-.22,2.34Z"/>
    </g>
  </g>
</svg>