<?xml version="1.0" encoding="UTF-8"?>
<svg id="Layer_2" data-name="Layer 2" xmlns="http://www.w3.org/2000/svg" viewBox="0 0 25.52 27.02">
  <defs>
    <style>
      .cls-1 {
        fill: #e4587c;
      }

      .cls-1, .cls-2 {
        stroke-width: 0px;
      }

      .cls-2 {
        fill: #028691;
      }
    </style>
  </defs>
  <g id="Layer_1-2" data-name="Layer 1">
    <g>
      <path class="cls-1" d="m7.43,8.26h.92c0-2.03,1.64-3.67,3.67-3.67v-.92c-2.03,0-3.67-1.64-3.67-3.67h-.92c0,2.03-1.64,3.67-3.67,3.67v.92c2.03,0,3.67,1.64,3.67,3.67"/>
      <path class="cls-1" d="m3,13.51v-.08c0-1.24,1.01-2.25,2.25-2.25v-.67c-1.24,0-2.25-1.01-2.25-2.25h-.67c0,1.24-1.01,2.25-2.25,2.25h-.08v.67c1.29,0,2.34,1.05,2.34,2.34h.67Z"/>
      <path class="cls-2" d="m15.85,8.88l.44.09.52-3.62-.4-.07c-1.08-.2-2.18-.24-3.27-.11l-.42.05.43,3.62.42-.05c.76-.09,1.53-.06,2.28.09"/>
      <path class="cls-2" d="m24.69,11.98l-.26-.61-3.17,1.83.13.34c.49,1.28.61,2.67.34,4.01-.28,1.41-.97,2.69-1.98,3.7-1.02,1.01-2.3,1.7-3.7,1.98-.46.09-.94.14-1.41.14-.95,0-1.89-.19-2.77-.55-1.33-.55-2.45-1.47-3.24-2.67-.8-1.19-1.22-2.58-1.22-4.02v-.42h-3.65v.42c0,2.16.63,4.25,1.83,6.04,1.2,1.8,2.89,3.18,4.88,4.01,1.33.55,2.73.83,4.16.83h0c.71,0,1.42-.07,2.12-.21,2.12-.42,4.04-1.45,5.57-2.98,1.53-1.53,2.56-3.45,2.98-5.57.42-2.12.21-4.29-.62-6.29"/>
      <path class="cls-2" d="m23.45,10.07l-3.16,1.83-.23-.32c-.51-.72-1.14-1.33-1.88-1.83l-.25-.16-.12-.07.07-.29v-.02s.9-3.31.9-3.31l.47.24c.33.18.66.38.96.58,1.18.79,2.19,1.79,2.98,2.97l.26.38Z"/>
      <polygon class="cls-2" points="17.89 9.21 17.81 9.52 17.88 9.23 17.89 9.21"/>
    </g>
  </g>
</svg>