<?xml version="1.0" encoding="UTF-8"?>
<svg id="Layer_2" data-name="Layer 2" xmlns="http://www.w3.org/2000/svg" viewBox="0 0 21.52 23.91">
  <defs>
    <style>
      .cls-1 {
        fill: #e4587c;
      }

      .cls-1, .cls-2 {
        fill-rule: evenodd;
        stroke-width: 0px;
      }

      .cls-2 {
        fill: #028691;
      }
    </style>
  </defs>
  <g id="Layer_1-2" data-name="Layer 1">
    <g>
      <path class="cls-2" d="m10.76,0c2.8,0,5.61.26,7.67.76,1.03.25,1.87.57,2.4.9.5.31.67.57.69.8v.05c0,.24-.16.51-.69.84-.53.33-1.37.65-2.4.9-2.06.5-4.87.76-7.67.76s-5.61-.26-7.67-.76c-1.03-.25-1.87-.57-2.4-.9-.53-.33-.69-.6-.69-.84s.16-.52.69-.85c.53-.33,1.37-.65,2.4-.9,2.06-.5,4.87-.76,7.67-.76"/>
      <path class="cls-2" d="m0,4.32s.04.03.06.05c.71.44,1.65.77,2.75,1.04,2.2.53,5.07.79,7.95.79s5.74-.26,7.95-.79c1.1-.27,2.04-.59,2.76-1.04.02-.01.04-.03.06-.04v4.48c0,.24-.16.51-.69.84-.53.33-1.37.65-2.4.9-2.06.5-4.87.76-7.67.76s-5.61-.26-7.67-.76c-1.03-.25-1.87-.57-2.4-.9C.16,9.32,0,9.05,0,8.81v-4.49Z"/>
      <path class="cls-1" d="m0,10.62s.04.03.06.05c.71.44,1.65.78,2.75,1.05,2.2.53,5.07.79,7.95.79s5.74-.25,7.95-.79c1.1-.27,2.04-.6,2.76-1.05.02-.01.04-.03.06-.04v4.48c0,.24-.16.52-.69.85s-1.37.64-2.4.89c-2.06.5-4.87.76-7.67.76s-5.61-.26-7.67-.76c-1.03-.25-1.87-.56-2.4-.89S0,15.35,0,15.11v-4.49Z"/>
      <path class="cls-2" d="m0,16.93s.04.03.06.05c.71.44,1.65.78,2.75,1.05,2.2.53,5.07.79,7.95.79s5.74-.25,7.95-.79c1.1-.27,2.04-.6,2.76-1.05.02-.01.04-.03.06-.04v4.48c0,.24-.16.52-.69.85s-1.37.64-2.4.89c-2.06.5-4.87.76-7.67.76s-5.61-.26-7.67-.76c-1.03-.25-1.87-.56-2.4-.89S0,21.66,0,21.42v-4.49Z"/>
    </g>
  </g>
</svg>