<?xml version="1.0" encoding="UTF-8"?>
<svg id="Layer_2" data-name="Layer 2" xmlns="http://www.w3.org/2000/svg" viewBox="0 0 25.83 15.07">
  <defs>
    <style>
      .cls-1 {
        fill: #e4587c;
      }

      .cls-1, .cls-2 {
        stroke-width: 0px;
      }

      .cls-2 {
        fill: #028691;
      }
    </style>
  </defs>
  <g id="Layer_1-2" data-name="Layer 1">
    <g>
      <path class="cls-2" d="m.54,4.48c.36-.92.87-1.72,1.53-2.38s1.44-1.18,2.36-1.55c.92-.37,1.93-.55,3.02-.55s2.12.18,3.03.55c.91.37,1.7.89,2.36,1.55.66.66,1.18,1.46,1.54,2.38.36.93.54,1.94.54,3.05s-.18,2.13-.54,3.05c-.36.92-.88,1.72-1.54,2.38-.66.66-1.45,1.18-2.36,1.55s-1.92.55-3.03.55-2.1-.18-3.02-.55c-.92-.37-1.7-.89-2.36-1.55s-1.16-1.46-1.53-2.38c-.36-.93-.54-1.94-.54-3.05s.18-2.13.54-3.05m10.57,1.36c-.19-.5-.46-.94-.8-1.3-.34-.36-.75-.64-1.24-.84-.48-.2-1.03-.3-1.62-.3s-1.14.1-1.61.3c-.48.2-.89.48-1.24.84-.35.36-.62.8-.8,1.3-.19.51-.28,1.07-.28,1.7s.09,1.19.28,1.7c.18.51.45.94.8,1.3.35.36.76.64,1.24.84.48.2,1.01.3,1.61.3s1.14-.1,1.62-.3c.48-.2.9-.48,1.24-.84.34-.36.61-.8.8-1.3.19-.51.29-1.07.29-1.7s-.1-1.19-.29-1.7"/>
      <path class="cls-1" d="m25.83,3.44h-4.19c-.2,0-.38.03-.54.09-.16.06-.3.14-.41.25-.11.11-.19.23-.24.38-.06.15-.09.32-.09.52,0,.16.02.31.07.46.05.15.13.3.24.45.11.15.25.3.42.46.17.16.38.33.64.53.53.43.98.83,1.36,1.22.38.39.68.77.92,1.14.23.38.41.75.52,1.13.11.38.17.77.17,1.16,0,.54-.1,1.03-.29,1.45s-.48.79-.85,1.09c-.38.3-.85.53-1.42.68s-1.23.23-1.99.23h-5.27v-3.08h4.59c.2,0,.38-.03.54-.08s.3-.14.42-.23c.11-.1.2-.22.26-.37.06-.15.08-.32.08-.5,0-.17-.03-.34-.08-.49-.06-.16-.14-.31-.26-.47-.11-.16-.26-.32-.44-.49-.18-.17-.4-.36-.65-.55-.51-.4-.95-.79-1.31-1.16-.36-.38-.66-.75-.9-1.13-.24-.38-.41-.75-.52-1.13-.11-.38-.17-.77-.17-1.16,0-.54.1-1.03.29-1.45.19-.43.48-.79.85-1.09.38-.3.85-.53,1.42-.68.57-.16,1.23-.23,1.99-.23h4.85v3.07Z"/>
    </g>
  </g>
</svg>