<?xml version="1.0" encoding="UTF-8"?>
<svg id="Layer_2" data-name="Layer 2" xmlns="http://www.w3.org/2000/svg" viewBox="0 0 25.14 25.1">
  <defs>
    <style>
      .cls-1 {
        fill: #e4587c;
      }

      .cls-1, .cls-2 {
        stroke-width: 0px;
      }

      .cls-2 {
        fill: #028691;
      }
    </style>
  </defs>
  <g id="Layer_1-2" data-name="Layer 1">
    <g>
      <path class="cls-2" d="m11.33,25.1c-.08,0-.23,0-.37-.07-.44-.17-.67-.69-.5-1.17,0,0,.34-1,.67-2.43.12-.43.49-.72.91-.72.08,0,.16.01.24.03.25.07.47.24.59.46.12.21.14.45.08.67-.36,1.54-.72,2.56-.76,2.65-.1.33-.46.58-.85.58m4.22-.29c-.07,0-.2,0-.34-.07-.42-.17-.67-.66-.54-1.14.35-1.11.69-2.59.92-4.08.29-1.76.41-3.57.36-5.37,0-.52.42-.96.92-.96s.92.43.92.94c.07,1.78-.06,3.7-.37,5.69-.29,1.71-.64,3.25-1,4.34-.09.36-.46.64-.88.64m-8.15-.86c-.19,0-.37-.05-.51-.15-.2-.12-.34-.32-.4-.57-.04-.2-.02-.4.06-.59h0s.1-.17.1-.17c.76-1.27,1.18-2.57,1.18-3.65,0-2.11-.15-4.95-.21-6.08v-.11c0-2.77,2.22-5.02,4.97-5.02,1.74,0,3.33.88,4.24,2.37.27.45.13,1.01-.32,1.28-.13.09-.3.14-.48.14-.31,0-.61-.16-.79-.41-.57-.95-1.56-1.5-2.66-1.5-1.71,0-3.11,1.39-3.11,3.11,0,0,.22,3.63.22,6.21,0,1.44-.52,3.1-1.47,4.65l-.05.08c-.18.26-.46.41-.78.41m5.06-3.9c-.28-.02-.51-.15-.67-.35-.16-.21-.22-.47-.17-.72.36-2.39.38-4.48.05-6.2-.04-.25.01-.51.15-.71.14-.2.35-.34.59-.38.06,0,.11-.01.17-.01.47,0,.86.34.9.79.38,1.95.37,4.25-.03,6.81-.04.43-.44.78-.92.78h-.07Zm11.1-2.63c-.08,0-.22,0-.36-.07-.44-.18-.68-.7-.51-1.17.41-1.17.61-2.38.61-3.58,0-3.44-1.67-6.7-4.46-8.71-.19-.11-.34-.33-.39-.58-.05-.25.02-.52.18-.72.18-.23.47-.37.77-.37.19,0,.37.05.52.16,3.3,2.38,5.25,6.19,5.22,10.21,0,1.48-.24,2.9-.71,4.22-.12.37-.47.63-.87.63m-21.95,0c-.41,0-.76-.24-.9-.6-.48-1.44-.71-2.82-.71-4.22,0-1.21.16-2.38.48-3.46.11-.4.46-.67.89-.67.08,0,.17.01.25.04.24.07.44.22.56.44.12.21.15.46.08.7-.27.97-.4,1.97-.4,2.96,0,1.21.21,2.46.61,3.59.08.24.08.49-.02.71-.1.22-.29.39-.53.48-.09.05-.24.05-.32.05m1.03-9.97c-.2,0-.34-.06-.46-.12-.25-.15-.4-.35-.46-.59-.06-.24-.02-.49.11-.71C4.15,2.25,8.17,0,12.58,0c1.18,0,2.39.17,3.58.51.24.06.43.22.56.44.12.22.15.48.08.71-.1.4-.47.69-.9.69-.09,0-.17-.01-.25-.04-1.05-.3-2.06-.45-3.07-.45-3.76,0-7.18,1.91-9.16,5.12-.18.28-.49.45-.78.45"/>
      <path class="cls-1" d="m19.93,22.57c-.06,0-.17,0-.3-.05-.23-.07-.41-.22-.53-.43-.12-.21-.15-.46-.08-.7.52-1.73.52-4.05.48-5.65-.02-.22.06-.47.23-.66.17-.19.42-.3.69-.3.51,0,.92.38.97.88.05,1.91.03,4.31-.56,6.25-.15.4-.51.65-.9.65"/>
      <path class="cls-1" d="m4.26,21.71c-.12,0-.23-.04-.33-.07-.28-.13-.45-.32-.53-.54-.09-.24-.08-.5.03-.73.62-1.32.84-2.56.84-3.27s-.1-1.17-.21-1.7c-.16-.77-.33-1.59-.28-2.83,0-.89.13-1.75.39-2.59.46-1.47,1.31-2.81,2.45-3.87.16-.16.38-.25.63-.25s.5.11.68.29c.17.17.26.39.26.64,0,.25-.1.5-.29.68-.91.84-1.58,1.9-1.96,3.07-.27.82-.3,1.53-.32,2.04-.05,1.09.08,1.72.26,2.44.13.61.26,1.23.26,2.09,0,.43-.07,2.01-1.02,4.06-.17.35-.49.54-.86.54"/>
      <path class="cls-1" d="m20.44,13.53c-.51,0-.92-.41-.92-.92,0-3.84-3.12-6.96-6.96-6.96-.7,0-1.32.08-1.89.25-.09.03-.18.04-.26.04-.42,0-.78-.27-.89-.68-.06-.24-.04-.49.08-.7.12-.22.32-.37.56-.44.77-.23,1.57-.34,2.42-.34,2.37,0,4.59.93,6.26,2.61,1.65,1.67,2.55,3.88,2.52,6.22,0,.5-.41.92-.92.92"/>
    </g>
  </g>
</svg>