<?xml version="1.0" encoding="UTF-8"?>
<svg id="Layer_2" data-name="Layer 2" xmlns="http://www.w3.org/2000/svg" viewBox="0 0 20.2 21.27">
  <defs>
    <style>
      .cls-1 {
        fill: #e4587c;
      }

      .cls-1, .cls-2 {
        stroke-width: 0px;
      }

      .cls-2 {
        fill: #028691;
      }
    </style>
  </defs>
  <g id="Layer_1-2" data-name="Layer 1">
    <g>
      <path class="cls-2" d="m.37,3.52h5.52v6.71h-2.98c-.1,0-.18.06-.21.15L.41,17.62c-.08.24-.41.18-.41-.06V3.89c0-.2.16-.37.37-.37H.37Z"/>
      <rect class="cls-2" x="7.08" y="3.52" width="0" height="6.71"/>
      <path class="cls-1" d="m17.79,18.3H1.82c-.16,0-.3.11-.35.26l-.7,2.23c-.08.24.1.48.35.48h15.97c.16,0,.3-.11.35-.26l.7-2.23c.08-.24-.1-.48-.35-.48"/>
      <path class="cls-2" d="m2.19,17.26h15.97c.16,0,.31-.1.35-.26l1.67-5.31c.08-.24-.1-.48-.35-.48H3.87c-.16,0-.3.1-.35.26l-1.67,5.31c-.08.24.1.48.35.48h0Z"/>
      <path class="cls-2" d="m17.51,0H7.72c-.35,0-.64.29-.64.64v9.59h11.07V.64c0-.35-.29-.64-.64-.64Zm-2.42,8.47c0,.2-.16.36-.36.36h-4.23c-.2,0-.36-.16-.36-.36v-.86c0-.21.16-.37.36-.37h4.23c.2,0,.36.16.36.37v.86Zm0-2.58c0,.2-.16.37-.36.37h-4.23c-.2,0-.36-.17-.36-.37v-.86c0-.2.16-.36.36-.36h4.23c.2,0,.36.16.36.36v.86Zm0-2.57c0,.2-.16.36-.36.36h-4.23c-.2,0-.36-.16-.36-.36v-.86c0-.2.16-.37.36-.37h4.23c.2,0,.36.17.36.37v.86Z"/>
      <polygon class="cls-2" points="7.09 .64 7.09 10.23 7.08 10.23 7.09 .64"/>
    </g>
  </g>
</svg>