<svg xmlns="http://www.w3.org/2000/svg" width="36.733" height="35.861" viewBox="0 0 36.733 35.861">
  <g id="noun-software-2822919" transform="translate(-176.583 -110.69)" style="mix-blend-mode: luminosity;isolation: isolate">
    <path id="Path_118802" data-name="Path 118802" d="M179.931,110.69h30.036a3.358,3.358,0,0,1,3.349,3.348V143.2a3.358,3.358,0,0,1-3.349,3.348H179.931a3.357,3.357,0,0,1-3.348-3.348V114.038A3.358,3.358,0,0,1,179.931,110.69Zm7.025,11.594a1.354,1.354,0,0,1,1.839,1.987l-4.7,4.347,4.7,4.347a1.354,1.354,0,0,1-1.839,1.988l-5.777-5.341a1.354,1.354,0,0,1,0-1.987l5.777-5.341Zm14.148,1.987a1.354,1.354,0,0,1,1.839-1.987l5.777,5.341a1.354,1.354,0,0,1,0,1.987l-5.777,5.341a1.354,1.354,0,0,1-1.839-1.988l4.7-4.347-4.7-4.347Zm-3.752-4.79a1.355,1.355,0,0,1,2.5,1.052l-7.3,17.223a1.355,1.355,0,0,1-2.5-1.052l7.3-17.223Z" transform="translate(0 0)" fill="#606060" fill-rule="evenodd"/>
  </g>
</svg>
