<svg xmlns="http://www.w3.org/2000/svg" width="40.361" height="41.66" viewBox="0 0 40.361 41.66">
  <g id="noun-settings-5110695" transform="translate(-144.328 -67.694)" style="mix-blend-mode: luminosity;isolation: isolate">
    <path id="Path_118795" data-name="Path 118795" d="M229.484,300.3a2.866,2.866,0,0,0-4.017-.478l-8.1,6.349a2.3,2.3,0,0,1-1.41.488l-5.8.006a1.431,1.431,0,1,1,0-2.862l4.865,0a2.862,2.862,0,0,0-.006-5.724l-11.139.012h-.752a6.875,6.875,0,0,0-4.239,1.468l-3.975,3.121a.571.571,0,0,0-.1.8l7.72,9.764a.57.57,0,0,0,.444.217l11.921.1a6.867,6.867,0,0,0,4.318-1.48l9.8-7.752a2.87,2.87,0,0,0,.47-4.029Z" transform="translate(-45.414 -207.77)" fill="#606060"/>
    <path id="Path_118796" data-name="Path 118796" d="M147.145,97.476a.572.572,0,0,0-.8-.094l-1.8,1.419a.572.572,0,0,0-.094.8l7.537,9.532a.572.572,0,0,0,.8.094l1.8-1.419a.572.572,0,0,0,.094-.8Zm31.474-21.694h-1.408a.844.844,0,0,1-.568-.562,7.337,7.337,0,0,0-.473-1.136.814.814,0,0,1,.127-.959l.852-.852a.814.814,0,0,0,0-1.149L176,69.974a.814.814,0,0,0-1.149,0l-.853.852a.816.816,0,0,1-.959.128,7.205,7.205,0,0,0-1.136-.473.832.832,0,0,1-.6-.784v-1.19a.813.813,0,0,0-.813-.813H168.87a.813.813,0,0,0-.813.813V69.7a.832.832,0,0,1-.6.784,7.338,7.338,0,0,0-1.136.473.814.814,0,0,1-.959-.128l-.853-.852a.812.812,0,0,0-1.148,0l-1.148,1.149a.814.814,0,0,0,0,1.149l.852.852a.816.816,0,0,1,.128.959,7.249,7.249,0,0,0-.473,1.136.843.843,0,0,1-.568.562h-1.408a.812.812,0,0,0-.812.813v1.661a.813.813,0,0,0,.812.813h1.408a.844.844,0,0,1,.568.562,7.337,7.337,0,0,0,.473,1.136.812.812,0,0,1-.128.959l-.852.852a.814.814,0,0,0,0,1.149l1.149,1.149a.812.812,0,0,0,1.148,0l.853-.852a.816.816,0,0,1,.959-.128,7.249,7.249,0,0,0,1.136.473.832.832,0,0,1,.6.784v1.192a.813.813,0,0,0,.813.813H170.5a.813.813,0,0,0,.813-.813V85.154a.832.832,0,0,1,.6-.784,7.337,7.337,0,0,0,1.136-.473.812.812,0,0,1,.959.128l.853.852a.814.814,0,0,0,1.149,0l1.149-1.149a.814.814,0,0,0,0-1.149l-.852-.852a.814.814,0,0,1-.127-.959,7.249,7.249,0,0,0,.473-1.136.843.843,0,0,1,.568-.562h1.408a.812.812,0,0,0,.812-.813V76.6a.822.822,0,0,0-.817-.814Zm-8.937,5.032a3.389,3.389,0,1,1,3.389-3.389A3.388,3.388,0,0,1,169.682,80.814Z" fill="#606060"/>
  </g>
</svg>
