<svg xmlns="http://www.w3.org/2000/svg" width="37.823" height="37.823" viewBox="0 0 37.823 37.823">
  <path id="noun-assesment-4658555" d="M148.123,73.623a4.556,4.556,0,0,0-2.7.919V49.309a4.5,4.5,0,0,0-4.5-4.5H115.7a.9.9,0,0,0-.9.9v32.42a4.5,4.5,0,0,0,4.5,4.5h28.817a4.5,4.5,0,1,0,0-9.005Zm-18.011,1.8h-9.005a.9.9,0,0,1,0-1.8h9.005a.9.9,0,0,1,0,1.8Zm5.4-7.2H121.106a.9.9,0,0,1,0-1.8h14.409a.9.9,0,1,1,0,1.8Zm-15.309-8.1a.9.9,0,0,1,.9-.9h9.005a.9.9,0,0,1,0,1.8h-9.005A.9.9,0,0,1,120.206,60.114Zm17.11-6.3h-16.21a.9.9,0,0,1,0-1.8h16.21a.9.9,0,0,1,0,1.8Zm10.807,27.016a2.7,2.7,0,1,1,1.91-.792A2.7,2.7,0,0,1,148.123,80.827Z" transform="translate(-114.803 -44.806)" fill="#606060" style="mix-blend-mode: luminosity;isolation: isolate"/>
</svg>
