<svg xmlns="http://www.w3.org/2000/svg" width="25.044" height="36" viewBox="0 0 25.044 36">
  <g id="noun-skills-2129400" transform="translate(-6.947 -3.452)" style="mix-blend-mode: luminosity;isolation: isolate">
    <path id="Path_118803" data-name="Path 118803" d="M381.353,172.826a2.551,2.551,0,1,1-2.551-2.551,2.551,2.551,0,0,1,2.551,2.551" transform="translate(-359.332 -156.524)" fill="#606060"/>
    <path id="Path_118804" data-name="Path 118804" d="M337.371,122.842a5.4,5.4,0,0,0-.9-1.925.671.671,0,0,1,.11-.911l.409-.365-1.06-.951-.434.364a.894.894,0,0,1-1.019.095,7.129,7.129,0,0,0-2.165-.8.751.751,0,0,1-.643-.729v-.51h-1.506v.536h0a.752.752,0,0,1-.647.729,7.088,7.088,0,0,0-2.16.8.9.9,0,0,1-1.023-.1l-.409-.364-1.072.944.409.364h0a.671.671,0,0,1,.111.911,5.469,5.469,0,0,0-.9,1.925.8.8,0,0,1-.818.576h-.565v1.341h.6a.805.805,0,0,1,.818.572,5.485,5.485,0,0,0,.9,1.925.671.671,0,0,1-.11.911l-.409.364,1.06.951.409-.364a.893.893,0,0,1,1.023-.1,7.01,7.01,0,0,0,2.16.8.752.752,0,0,1,.647.729v.525H331.7v-.532a.751.751,0,0,1,.642-.729,7.012,7.012,0,0,0,2.165-.8.9.9,0,0,1,1.019.1l.409.365,1.072-.94-.409-.386a.671.671,0,0,1-.11-.911,5.4,5.4,0,0,0,.9-1.925.806.806,0,0,1,.818-.572h.6v-1.334h-.6a.8.8,0,0,1-.83-.583ZM330.93,128.1a4.8,4.8,0,0,1-3.183-1.174,3.708,3.708,0,0,1,0-5.67,4.9,4.9,0,0,1,6.366,0,3.707,3.707,0,0,1,0,5.67A4.8,4.8,0,0,1,330.93,128.1Z" transform="translate(-311.463 -107.975)" fill="#606060"/>
    <path id="Path_118805" data-name="Path 118805" d="M289.847,76.068a12.5,12.5,0,0,0,2.074-6.472c0-7.211-5.619-13.072-12.522-13.072S266.877,62.385,266.877,69.6a13.084,13.084,0,0,0,2.348,7.518c.309.449.626.886.939,1.326a19.9,19.9,0,0,1,3.663,6.826.788.788,0,0,0,.082,1.575h.313a19.073,19.073,0,0,1,.18,2.24.784.784,0,0,0,.783.76h8.374a.785.785,0,0,0,.783-.76,15.89,15.89,0,0,1,.223-2.24h.313a.787.787,0,0,0,0-1.575c.564-2.523,2.137-4.885,3.666-7.172.446-.7.88-1.35,1.3-2.028Zm-7.016,12.2h-6.887c-.035-.594-.078-1.055-.129-1.425h7.173a12.2,12.2,0,0,0-.157,1.413Zm5.635-18.025h0a1.579,1.579,0,0,1-.449,1.1,1.561,1.561,0,0,1-1.089.471,7.838,7.838,0,0,1-.587,1.429,1.581,1.581,0,0,1-.028,2.2l-1.01,1.02h0a1.559,1.559,0,0,1-2.2.027,7.785,7.785,0,0,1-1.416.59,1.579,1.579,0,0,1-.469,1.093,1.561,1.561,0,0,1-1.1.45h-1.44a1.56,1.56,0,0,1-1.1-.45,1.579,1.579,0,0,1-.47-1.093,7.784,7.784,0,0,1-1.416-.59,1.558,1.558,0,0,1-2.2-.027l-1.022-1.02a1.582,1.582,0,0,1-.023-2.208,7.842,7.842,0,0,1-.591-1.429,1.56,1.56,0,0,1-1.087-.472,1.578,1.578,0,0,1-.447-1.1V68.793a1.578,1.578,0,0,1,.447-1.1,1.561,1.561,0,0,1,1.087-.472,7.843,7.843,0,0,1,.591-1.429,1.582,1.582,0,0,1,.023-2.208l1.014-1.02a1.606,1.606,0,0,1,2.2-.024,7.826,7.826,0,0,1,1.417-.594,1.578,1.578,0,0,1,.469-1.093,1.561,1.561,0,0,1,1.1-.45h1.432a1.561,1.561,0,0,1,1.1.45,1.579,1.579,0,0,1,.469,1.093,7.818,7.818,0,0,1,1.417.594,1.559,1.559,0,0,1,2.2.024l1.01,1.02a1.581,1.581,0,0,1,.027,2.208,7.828,7.828,0,0,1,.587,1.429,1.559,1.559,0,0,1,1.089.471,1.579,1.579,0,0,1,.449,1.1Z" transform="translate(-259.93 -53.072)" fill="#606060"/>
    <path id="Path_118806" data-name="Path 118806" d="M366.039,441.52a.729.729,0,1,0,0,1.458h5.467a.729.729,0,1,0,0-1.458Z" transform="translate(-349.304 -403.526)" fill="#606060"/>
  </g>
</svg>
