<svg xmlns="http://www.w3.org/2000/svg" width="53.198" height="35.163" viewBox="0 0 53.198 35.163">
  <g id="noun-work-engagement-946691" transform="translate(-100.798 -30.883)" style="mix-blend-mode: luminosity;isolation: isolate">
    <path id="Path_118807" data-name="Path 118807" d="M311.35,35.009a4.126,4.126,0,0,1,8.251,0c0,2.853-1.847,4.985-4.126,4.985S311.35,37.879,311.35,35.009Z" transform="translate(-188.078)" fill="#606060"/>
    <path id="Path_118808" data-name="Path 118808" d="M257.043,130.287a9.062,9.062,0,0,1,5.855-6.608.51.51,0,0,1,.616.226l1.821,3.153.989-1.714-.514-.892a.232.232,0,0,1,.2-.349H267.9a.232.232,0,0,1,.2.349l-.514.892.989,1.714,1.821-3.153a.509.509,0,0,1,.616-.226,9.062,9.062,0,0,1,5.855,6.608.514.514,0,0,1-.5.624H257.541a.514.514,0,0,1-.5-.624Z" transform="translate(-139.557 -82.863)" fill="#606060"/>
    <path id="Path_118809" data-name="Path 118809" d="M155.11,203.634a4.126,4.126,0,0,1,8.251,0c0,2.853-1.847,4.985-4.126,4.985S155.11,206.5,155.11,203.634Z" transform="translate(-48.515 -150.626)" fill="#606060"/>
    <path id="Path_118810" data-name="Path 118810" d="M120.134,299.534H101.308a.513.513,0,0,1-.5-.624,9.062,9.062,0,0,1,5.855-6.608.51.51,0,0,1,.616.226l1.293,2.24.527.914.989-1.714-.515-.892a.232.232,0,0,1,.2-.349h1.886a.232.232,0,0,1,.2.349l-.515.892.989,1.714.527-.914,1.293-2.24a.509.509,0,0,1,.616-.226,9.062,9.062,0,0,1,5.855,6.608.513.513,0,0,1-.5.624Z" transform="translate(0 -233.488)" fill="#606060"/>
    <path id="Path_118813" data-name="Path 118813" d="M467.59,203.634a4.126,4.126,0,0,1,8.251,0c0,2.853-1.847,4.985-4.126,4.985S467.59,206.5,467.59,203.634Z" transform="translate(-327.641 -150.626)" fill="#606060"/>
    <path id="Path_118814" data-name="Path 118814" d="M433.108,298.907a.514.514,0,0,1-.5.624H413.783a.513.513,0,0,1-.5-.624,9.062,9.062,0,0,1,5.855-6.608.51.51,0,0,1,.616.226l1.821,3.153.989-1.714-.515-.892a.232.232,0,0,1,.2-.349h1.886a.232.232,0,0,1,.2.349l-.515.892.989,1.714,1.821-3.153a.509.509,0,0,1,.616-.226,9.064,9.064,0,0,1,5.855,6.608Z" transform="translate(-279.123 -233.485)" fill="#606060"/>
    <path id="Path_118817" data-name="Path 118817" d="M249.16,221.924a12.21,12.21,0,0,0-2.6-1.578l6.5-6.5h4.18Z" transform="translate(-130.203 -163.431)" fill="#606060"/>
    <path id="Path_118818" data-name="Path 118818" d="M468.24,292.514c.011,0,.024,0,.035-.007C468.264,292.511,468.252,292.51,468.24,292.514Z" transform="translate(-328.222 -233.699)" fill="#606060"/>
    <path id="Path_118819" data-name="Path 118819" d="M231.43,292.51a.339.339,0,0,1,.035.007A.233.233,0,0,0,231.43,292.51Z" transform="translate(-116.688 -233.702)" fill="#606060"/>
    <path id="Path_118820" data-name="Path 118820" d="M357.55,213.84l6.5,6.5a12.191,12.191,0,0,0-2.6,1.578l-8.081-8.081Z" transform="translate(-225.613 -163.429)" fill="#606060"/>
  </g>
</svg>
